<svg xmlns="http://www.w3.org/2000/svg" viewBox="0 0 2200 1400" fill="none">
  <defs>
    <pattern id="gridSmall" width="24" height="24" patternUnits="userSpaceOnUse">
      <path d="M24 0H0V24" stroke="#141414" stroke-opacity="0.06" stroke-width="1"/>
    </pattern>
    <pattern id="gridBig" width="120" height="120" patternUnits="userSpaceOnUse">
      <path d="M120 0H0V120" stroke="#141414" stroke-opacity="0.12" stroke-width="1.2"/>
    </pattern>
  </defs>

  <rect width="2200" height="1400" fill="#f8f6f1"/>
  <rect width="2200" height="1400" fill="url(#gridSmall)"/>
  <rect width="2200" height="1400" fill="url(#gridBig)"/>

  <g stroke="#131313" stroke-opacity="0.24">
    <line x1="70" y1="150" x2="2130" y2="150"/>
    <line x1="70" y1="330" x2="2130" y2="330"/>
    <line x1="70" y1="520" x2="2130" y2="520"/>
    <line x1="70" y1="710" x2="2130" y2="710"/>
    <line x1="70" y1="900" x2="2130" y2="900"/>
    <line x1="70" y1="1090" x2="2130" y2="1090"/>
    <line x1="220" y1="40" x2="220" y2="1320"/>
    <line x1="680" y1="40" x2="680" y2="1320"/>
    <line x1="1120" y1="40" x2="1120" y2="1320"/>
    <line x1="1560" y1="40" x2="1560" y2="1320"/>
    <line x1="1990" y1="40" x2="1990" y2="1320"/>
  </g>

  <g stroke="#0d0d0d" stroke-width="2.2" stroke-opacity="0.45">
    <line x1="40" y1="1010" x2="2160" y2="920"/>
    <line x1="40" y1="1040" x2="2160" y2="950"/>
  </g>

  <g stroke="#0e0e0e" stroke-opacity="0.5">
    <rect x="360" y="620" width="88" height="370"/>
    <rect x="1310" y="450" width="110" height="540"/>
    <rect x="1510" y="430" width="110" height="560"/>
    <line x1="360" y1="690" x2="448" y2="690"/>
    <line x1="360" y1="760" x2="448" y2="760"/>
    <line x1="360" y1="830" x2="448" y2="830"/>
    <line x1="1310" y1="540" x2="1420" y2="540"/>
    <line x1="1310" y1="640" x2="1420" y2="640"/>
    <line x1="1310" y1="740" x2="1420" y2="740"/>
    <line x1="1510" y1="520" x2="1620" y2="520"/>
    <line x1="1510" y1="620" x2="1620" y2="620"/>
    <line x1="1510" y1="720" x2="1620" y2="720"/>
  </g>

  <g stroke="#090909" stroke-width="3" stroke-opacity="0.58">
    <path d="M404 620C620 350 1060 250 1365 450"/>
    <path d="M404 640C620 380 1070 280 1570 430"/>
    <path d="M300 980L2100 870"/>
  </g>

  <g stroke="#101010" stroke-opacity="0.42">
    <line x1="500" y1="560" x2="500" y2="965"/>
    <line x1="580" y1="515" x2="580" y2="960"/>
    <line x1="660" y1="475" x2="660" y2="955"/>
    <line x1="740" y1="440" x2="740" y2="952"/>
    <line x1="820" y1="405" x2="820" y2="949"/>
    <line x1="900" y1="372" x2="900" y2="946"/>
    <line x1="980" y1="344" x2="980" y2="941"/>
    <line x1="1060" y1="323" x2="1060" y2="938"/>
    <line x1="1140" y1="308" x2="1140" y2="934"/>
    <line x1="1220" y1="302" x2="1220" y2="929"/>
    <line x1="1400" y1="448" x2="1400" y2="918"/>
    <line x1="1480" y1="444" x2="1480" y2="914"/>
    <line x1="1560" y1="442" x2="1560" y2="909"/>
    <line x1="1640" y1="447" x2="1640" y2="906"/>
    <line x1="1720" y1="455" x2="1720" y2="902"/>
    <line x1="1800" y1="468" x2="1800" y2="898"/>
    <line x1="1880" y1="482" x2="1880" y2="894"/>
    <line x1="1960" y1="498" x2="1960" y2="891"/>
    <line x1="2040" y1="512" x2="2040" y2="887"/>
  </g>

  <g stroke="#141414" stroke-opacity="0.35">
    <line x1="114" y1="84" x2="2080" y2="84"/>
    <line x1="114" y1="1240" x2="2080" y2="1240"/>
    <line x1="114" y1="84" x2="114" y2="1240"/>
    <line x1="2080" y1="84" x2="2080" y2="1240"/>
    <line x1="120" y1="84" x2="120" y2="1240"/>
    <line x1="2068" y1="84" x2="2068" y2="1240"/>
  </g>

  <g font-family="monospace" font-size="18" fill="#111" fill-opacity="0.38">
    <text x="126" y="72">SUSPENSION STRUCTURE STUDY</text>
    <text x="1650" y="72">SCALE 1:250</text>
    <text x="120" y="1270">SECTION A-A</text>
    <text x="820" y="1270">FOUNDATION DETAIL</text>
    <text x="1520" y="1270">ELEVATION NOTES</text>
    <text x="520" y="540">CABLE CURVE R=VARIABLE</text>
    <text x="1410" y="560">TOWER TRUSS GRID</text>
  </g>

  <g stroke="#161616" stroke-opacity="0.32" stroke-width="1.6">
    <rect x="240" y="1160" width="260" height="90"/>
    <rect x="980" y="1160" width="260" height="90"/>
    <rect x="1680" y="1160" width="260" height="90"/>
    <line x1="240" y1="1205" x2="500" y2="1205"/>
    <line x1="980" y1="1205" x2="1240" y2="1205"/>
    <line x1="1680" y1="1205" x2="1940" y2="1205"/>
    <line x1="280" y1="1160" x2="280" y2="1250"/>
    <line x1="1020" y1="1160" x2="1020" y2="1250"/>
    <line x1="1720" y1="1160" x2="1720" y2="1250"/>
  </g>
</svg>
